<svg xmlns="http://www.w3.org/2000/svg" x="0px" y="0px" viewBox="8.399660682678222 6.614269828796386 31.20066146850586 34.775719451904294" enable-background="new 0 0 48 48">
<g>
	
		<path fill="#FFFFFF" stroke="#536DFE" stroke-width="0.8" stroke-linecap="round" stroke-linejoin="round" stroke-miterlimit="10" d="   M24.00001,27.02593h-0.00002c-4.43473,0-8.02979-3.59506-8.02979-8.02979v-3.95208c0-4.43473,3.59506-8.02979,8.02979-8.02979   h0.00002c4.43473,0,8.02979,3.59506,8.02979,8.02979v3.95208C32.02979,23.43088,28.43474,27.02593,24.00001,27.02593z"/>
	<path fill="none" stroke="#536DFE" stroke-width="0.8" stroke-linecap="round" stroke-linejoin="round" stroke-miterlimit="10" d="   M21.55539,23.31818c-0.61863,0-1.06514-0.61363-0.85981-1.19719c0.48507-1.3786,1.78415-2.36531,3.31054-2.36531   c1.52639,0,2.82547,0.98671,3.31054,2.36531c0.20533,0.58356-0.24118,1.19719-0.85981,1.19719H21.55539z"/>
	<path fill="none" stroke="#536DFE" stroke-width="0.8" stroke-linecap="round" stroke-linejoin="round" stroke-miterlimit="10" d="   M22.49462,10.64482c0.73021-0.50553,2.17658-0.46341,2.72424,0"/>
	
		<path fill="#FFFFFF" stroke="#536DFE" stroke-width="0.8" stroke-linecap="round" stroke-linejoin="round" stroke-miterlimit="10" d="   M15.97021,14.26452c-1.42191,0-2.57459,1.15268-2.57459,2.57459v0.00001c0,1.42191,1.15268,2.57459,2.57459,2.57459V14.26452z"/>
	
		<path fill="#FFFFFF" stroke="#536DFE" stroke-width="0.8" stroke-linecap="round" stroke-linejoin="round" stroke-miterlimit="10" d="   M32.02979,14.26452c1.42191,0,2.57459,1.15268,2.57459,2.57459v0.00001c0,1.42191-1.15268,2.57459-2.57459,2.57459V14.26452z"/>
	
		<path fill="#FFFFFF" stroke="#536DFE" stroke-width="0.8" stroke-linecap="round" stroke-linejoin="round" stroke-miterlimit="10" d="   M32.02979,14.26452l-1.40753-0.35033c-1.01104-0.25165-1.64098-1.25903-1.42461-2.2782l0.48159-2.26845l0.94599,0.30231   c1.59591,0.51,2.40316,2.28594,1.73804,3.82368L32.02979,14.26452z"/>
	
		<path fill="#FFFFFF" stroke="#536DFE" stroke-width="0.8" stroke-linecap="round" stroke-linejoin="round" stroke-miterlimit="10" d="   M15.97693,14.26452l1.40753-0.35033c1.01104-0.25165,1.64098-1.25903,1.42461-2.2782l-0.48159-2.26845l-0.94599,0.30231   c-1.59591,0.51-2.40316,2.28594-1.73804,3.82368L15.97693,14.26452z"/>
	
		<path fill="#FFFFFF" stroke="#536DFE" stroke-width="0.8" stroke-linecap="round" stroke-linejoin="round" stroke-miterlimit="10" d="   M30.04235,29.42801h-12.0847c-5.05782,0-9.15799,4.10017-9.15799,9.15799v0.00001c0,1.32532,1.07438,2.3997,2.3997,2.3997h25.60126   c1.32532,0,2.3997-1.07438,2.3997-2.3997V38.586C39.20034,33.52818,35.10017,29.42801,30.04235,29.42801z"/>
</g>
<g>
	<g>
		
			<circle fill="none" stroke="#000000" stroke-width="0.8" stroke-linecap="round" stroke-linejoin="round" stroke-miterlimit="10" cx="20.82862" cy="16.46306" r="1.98375"/>
		
			<circle fill="none" stroke="#000000" stroke-width="0.8" stroke-linecap="round" stroke-linejoin="round" stroke-miterlimit="10" cx="27.17138" cy="16.46306" r="1.98375"/>
		
			<line fill="none" stroke="#000000" stroke-width="0.8" stroke-linecap="round" stroke-linejoin="round" stroke-miterlimit="10" x1="22.80131" y1="16.46306" x2="25.18763" y2="16.46306"/>
	</g>
	<path fill="none" stroke="#000000" stroke-width="0.8" stroke-linecap="round" stroke-linejoin="round" stroke-miterlimit="10" d="   M34.13,30.39001v10.59998H13.87V30.39001c1.23004-0.60999,2.62-0.96002,4.09003-0.96002h12.07996   C31.51001,29.42999,32.90002,29.78003,34.13,30.39001z"/>
</g>
<g>
	<path fill="none" stroke="#536DFE" stroke-width="0.8" stroke-linecap="round" stroke-linejoin="round" stroke-miterlimit="10" d="   M23.63991,34.51336l-2.80412-4.72532c-0.13245-0.22319-0.37276-0.36003-0.63229-0.36003h-1.31676   c-0.4332,0-0.7725,0.37263-0.73203,0.80393l0.44337,4.72494c0.15091,1.60822,1.96911,2.46764,3.30759,1.56342l1.51353-1.02247   C23.74183,35.27987,23.83861,34.84819,23.63991,34.51336z"/>
	<path fill="none" stroke="#536DFE" stroke-width="0.8" stroke-linecap="round" stroke-linejoin="round" stroke-miterlimit="10" d="   M24.34764,34.51336l2.80412-4.72532c0.13245-0.22319,0.37276-0.36003,0.63229-0.36003h1.31676   c0.4332,0,0.7725,0.37263,0.73203,0.80393l-0.44337,4.72494c-0.15091,1.60822-1.9691,2.46764-3.30759,1.56342l-1.51353-1.02247   C24.24572,35.27987,24.14894,34.84819,24.34764,34.51336z"/>
</g>
</svg>