<?xml version="1.0" standalone="no"?>
<!DOCTYPE svg PUBLIC "-//W3C//DTD SVG 20010904//EN"
 "http://www.w3.org/TR/2001/REC-SVG-20010904/DTD/svg10.dtd">
<svg version="1.0" xmlns="http://www.w3.org/2000/svg"
 width="500.000000pt" height="500.000000pt" viewBox="0 0 500.000000 500.000000"
 preserveAspectRatio="xMidYMid meet">

<g transform="translate(0.000000,500.000000) scale(0.100000,-0.100000)"
fill="#000000" stroke="none">
<path d="M2180 4746 c-126 -19 -291 -57 -322 -73 -58 -29 -30 -54 104 -93 104
-30 113 -43 44 -59 -68 -15 -195 -64 -249 -95 -34 -20 -56 -25 -113 -24 -77 0
-122 -15 -171 -56 -65 -55 -68 -134 -8 -218 29 -40 34 -53 23 -59 -7 -5 -19
-9 -26 -9 -28 0 -94 -43 -112 -73 -24 -38 -26 -106 -5 -147 21 -40 69 -74 143
-100 34 -13 65 -26 67 -30 2 -4 -34 -10 -81 -14 -132 -10 -183 -41 -168 -101
9 -35 74 -97 160 -153 41 -26 74 -50 74 -54 0 -3 -19 -9 -42 -13 -55 -8 -205
-53 -240 -71 -39 -20 -58 -43 -58 -69 0 -34 21 -50 95 -75 36 -12 67 -26 71
-31 3 -5 -19 -20 -50 -34 -30 -13 -60 -34 -66 -46 -17 -30 -4 -66 29 -83 43
-23 255 -80 446 -121 210 -45 232 -53 145 -55 -36 0 -156 -7 -268 -14 -212
-15 -252 -25 -252 -65 0 -40 21 -49 255 -102 l100 -23 -138 -8 c-173 -9 -235
-21 -286 -58 -40 -29 -71 -75 -71 -104 0 -76 339 -167 615 -166 72 1 38 16
-65 30 -116 15 -229 45 -259 68 -38 28 -40 80 -6 112 l27 25 953 5 c524 3 956
8 960 12 19 19 -61 30 -323 44 -158 8 -469 19 -692 24 -438 9 -443 9 -655 75
-82 26 -87 29 -60 36 56 14 608 30 1168 34 307 2 562 7 567 10 15 9 12 41 -4
54 -17 14 -144 25 -551 46 -367 19 -654 41 -800 60 -293 39 -617 117 -600 145
11 18 175 11 264 -10 243 -58 462 -76 1396 -115 204 -8 389 -18 411 -21 41 -6
42 -7 48 -51 12 -88 6 -339 -9 -424 -74 -397 -326 -710 -740 -918 -151 -76
-272 -120 -456 -165 -191 -47 -314 -64 -549 -77 -288 -15 -298 -16 -316 -45
-58 -88 68 -120 430 -111 357 9 646 76 971 225 595 273 939 653 1037 1144 77
390 -39 1054 -262 1499 -207 415 -525 665 -975 765 -137 31 -419 41 -555 20z
m431 -50 c52 -14 121 -35 152 -46 90 -34 259 -123 354 -187 106 -71 281 -241
352 -343 143 -205 250 -472 311 -776 62 -311 79 -679 40 -844 -20 -81 -109
-283 -144 -325 l-17 -20 5 20 c67 255 69 266 73 455 4 161 2 198 -17 290 -29
143 -77 282 -148 433 l-61 127 33 0 c39 0 56 15 56 51 0 37 -15 46 -90 51
l-65 5 -155 154 c-85 85 -185 174 -222 199 -37 25 -68 48 -68 51 0 4 14 9 30
13 29 5 31 8 24 41 -3 19 -3 35 2 35 11 0 85 -44 206 -122 104 -68 168 -92
183 -69 12 20 -15 146 -45 209 -36 76 -158 206 -253 269 -136 90 -362 169
-557 193 -46 5 -170 10 -275 10 -195 0 -263 10 -309 45 -16 12 -17 17 -6 30
21 25 87 55 154 71 97 22 336 12 457 -20z m-91 -338 c140 -62 253 -118 248
-123 -3 -4 -139 10 -483 50 -167 19 -348 45 -354 50 -21 22 380 91 449 78 14
-2 77 -27 140 -55z m275 23 c159 -42 313 -132 435 -255 41 -42 69 -76 63 -76
-6 0 -96 44 -200 99 -200 104 -318 162 -448 218 -44 19 -82 37 -85 40 -11 12
160 -7 235 -26z m-615 -211 c324 -54 625 -166 765 -284 l30 -26 -45 6 c-138
18 -395 63 -705 125 -401 79 -556 115 -582 134 -17 13 -17 15 -1 31 47 48 297
54 538 14z m639 -19 c46 -9 75 -32 86 -68 5 -18 2 -23 -13 -23 -19 0 -212 87
-212 96 0 7 92 4 139 -5z m-884 -316 c339 -86 586 -115 996 -115 l237 0 41
-46 c66 -75 79 -73 -199 -34 -350 49 -446 61 -595 75 -88 8 -216 15 -285 15
-200 1 -377 16 -453 40 -79 25 -132 65 -121 93 19 50 96 44 379 -28z m395 50
c138 -16 250 -41 250 -56 0 -26 -414 25 -504 61 -35 14 106 11 254 -5z m-305
-295 c77 -5 255 -19 395 -30 140 -10 370 -26 510 -34 439 -26 411 -23 438 -48
22 -21 71 -107 93 -165 l9 -25 -97 7 c-54 3 -165 12 -248 20 -82 8 -222 21
-310 29 -176 17 -318 28 -621 51 -233 18 -363 37 -454 67 -75 24 -164 67 -200
96 l-25 20 45 6 c122 16 286 18 465 6z m-130 -310 c77 -5 277 -15 445 -20 168
-6 386 -17 485 -25 99 -8 294 -24 433 -35 139 -11 257 -22 262 -25 10 -6 60
-157 60 -181 0 -16 -19 -17 -75 -4 -42 10 -232 42 -350 59 -82 12 -384 43
-640 66 -99 9 -268 25 -375 36 -107 11 -280 22 -385 25 -228 6 -237 8 -233 36
7 45 114 91 193 83 22 -3 103 -9 180 -15z"/>
<path d="M4451 656 c-20 -20 -31 -41 -29 -52 3 -16 11 -12 47 23 23 23 40 47
36 53 -10 16 -19 12 -54 -24z"/>
<path d="M562 463 l3 -208 48 -3 c27 -2 74 2 105 9 97 20 162 104 162 209 0
57 -42 135 -91 167 -38 25 -53 28 -136 31 l-93 4 2 -209z m203 147 c78 -48 99
-179 40 -255 -32 -43 -68 -60 -147 -69 l-58 -6 0 181 0 182 66 -6 c40 -4 79
-15 99 -27z"/>
<path d="M1366 655 c-3 -9 -6 -48 -6 -85 l0 -69 -35 20 c-104 62 -215 -5 -215
-129 0 -48 4 -57 39 -95 38 -41 42 -42 100 -42 70 1 105 21 134 76 15 29 17
57 15 183 -2 100 -7 151 -14 153 -6 2 -14 -3 -18 -12z m-55 -155 c28 -15 49
-63 49 -110 0 -109 -146 -139 -203 -42 -41 69 13 162 93 162 23 0 50 -5 61
-10z"/>
<path d="M977 654 c-4 -4 -7 -16 -7 -26 0 -14 6 -19 23 -16 14 2 22 10 22 23
0 20 -25 32 -38 19z"/>
<path d="M3304 646 c-8 -21 3 -36 27 -36 15 0 20 6 17 22 -4 27 -35 37 -44 14z"/>
<path d="M4154 645 c-9 -23 15 -48 32 -34 19 15 18 35 -2 43 -22 8 -24 8 -30
-9z"/>
<path d="M1733 530 c-110 -49 -112 -208 -3 -262 48 -25 91 -22 134 7 l36 24 6
-25 c13 -53 29 -16 32 75 2 81 0 97 -19 128 -22 36 -85 73 -124 73 -11 0 -39
-9 -62 -20z m117 -35 c38 -20 50 -43 50 -100 0 -38 -5 -52 -29 -76 -57 -57
-155 -32 -181 46 -32 96 68 177 160 130z"/>
<path d="M2070 533 c-32 -17 -35 -22 -35 -63 0 -42 3 -46 35 -62 19 -9 54 -22
77 -28 52 -13 68 -38 47 -68 -19 -27 -89 -30 -135 -7 -34 18 -57 11 -38 -12
61 -73 210 -47 217 39 4 46 -27 72 -104 88 -34 7 -58 18 -64 30 -13 24 -13 26
6 44 20 20 84 21 110 1 25 -19 44 -19 44 0 0 42 -104 67 -160 38z"/>
<path d="M2364 536 c-34 -15 -44 -33 -44 -77 0 -35 25 -53 95 -69 45 -11 85
-39 85 -60 0 -38 -104 -55 -148 -24 -13 9 -30 13 -40 9 -15 -6 -13 -10 11 -31
35 -30 66 -38 121 -30 56 9 86 37 86 81 0 38 -31 67 -85 79 -82 19 -109 44
-79 77 21 23 82 25 110 4 25 -19 44 -19 44 0 0 39 -101 66 -156 41z"/>
<path d="M2693 539 c-90 -26 -124 -170 -56 -241 33 -35 89 -53 136 -44 135 25
161 211 37 274 -47 24 -67 25 -117 11z m108 -39 c28 -15 49 -63 49 -110 0
-117 -164 -140 -210 -30 -17 41 0 101 37 129 28 23 91 28 124 11z"/>
<path d="M3043 536 c-47 -21 -73 -70 -73 -134 0 -92 39 -136 132 -148 33 -4
51 0 76 15 37 24 44 47 10 36 -44 -14 -110 -17 -132 -5 -48 25 -71 103 -45
153 30 58 96 73 156 36 35 -22 49 -20 40 5 -17 43 -109 67 -164 42z"/>
<path d="M3535 536 c-42 -18 -83 -69 -91 -112 -9 -48 19 -118 59 -146 44 -31
124 -31 166 0 30 22 31 22 31 3 0 -11 5 -23 11 -27 22 -13 30 22 26 109 -3 92
-15 120 -68 159 -33 24 -97 31 -134 14z m127 -55 c29 -26 33 -35 33 -81 0 -46
-4 -55 -33 -81 -55 -49 -138 -36 -171 28 -37 72 18 163 98 163 31 0 49 -7 73
-29z"/>
<path d="M3906 540 c-120 -36 -130 -214 -16 -273 54 -28 160 -7 160 32 0 9 -6
11 -22 6 -13 -4 -44 -10 -70 -12 -43 -4 -51 -2 -78 25 -26 26 -30 38 -30 82 0
44 4 56 29 81 36 35 81 38 129 9 38 -23 57 -19 42 9 -9 18 -79 52 -103 50 -6
0 -25 -5 -41 -9z"/>
<path d="M4386 540 c-65 -20 -100 -79 -94 -158 4 -48 10 -60 40 -88 48 -43
111 -54 165 -28 109 54 112 207 3 262 -47 23 -67 26 -114 12z m97 -41 c39 -20
57 -51 57 -102 0 -40 -5 -53 -29 -78 -24 -23 -38 -29 -74 -29 -56 0 -92 27
-108 80 -28 93 68 173 154 129z"/>
<path d="M976 518 c-10 -37 -7 -215 4 -243 20 -53 30 -13 30 126 0 112 -3 139
-14 139 -7 0 -16 -10 -20 -22z"/>
<path d="M3312 398 c2 -94 7 -143 14 -145 14 -5 22 100 16 210 -3 57 -8 77
-19 77 -11 0 -13 -26 -11 -142z"/>
<path d="M4154 474 c-7 -68 0 -196 11 -214 17 -28 25 14 25 141 0 113 -3 139
-14 139 -10 0 -16 -19 -22 -66z"/>
</g>
</svg>
