<?xml version="1.0" standalone="no"?>
<!DOCTYPE svg PUBLIC "-//W3C//DTD SVG 20010904//EN"
 "http://www.w3.org/TR/2001/REC-SVG-20010904/DTD/svg10.dtd">
<svg version="1.0" xmlns="http://www.w3.org/2000/svg"
 width="500.000000pt" height="500.000000pt" viewBox="0 0 500.000000 500.000000"
 preserveAspectRatio="xMidYMid meet">

<g transform="translate(0.000000,500.000000) scale(0.100000,-0.100000)"
fill="#000000" stroke="none">
<path d="M2290 4724 c-228 -26 -464 -69 -535 -98 -23 -10 -35 -22 -35 -35 0
-26 5 -29 140 -76 63 -22 113 -44 110 -50 -3 -5 -35 -17 -72 -27 -78 -20 -204
-69 -267 -104 -34 -19 -58 -24 -113 -24 -95 0 -149 -16 -198 -57 -95 -81 -97
-171 -9 -284 16 -20 29 -39 29 -42 0 -3 -23 -11 -51 -17 -55 -13 -111 -55
-135 -101 -20 -40 -18 -113 6 -159 25 -49 60 -73 162 -115 l82 -33 -50 -5
c-27 -4 -77 -9 -110 -12 -102 -11 -147 -53 -129 -122 9 -38 80 -103 187 -174
84 -55 88 -59 61 -64 -172 -35 -325 -89 -359 -126 -25 -28 -22 -74 7 -98 13
-10 51 -27 84 -36 98 -27 108 -45 38 -69 -63 -22 -93 -51 -93 -92 0 -44 30
-71 100 -90 30 -9 75 -22 100 -29 96 -30 242 -65 415 -100 179 -37 209 -45
165 -45 -12 0 -149 -7 -304 -16 -292 -16 -338 -24 -351 -65 -8 -25 10 -56 43
-73 15 -8 83 -26 152 -40 250 -53 250 -52 40 -58 -218 -7 -270 -19 -335 -79
-56 -52 -74 -99 -50 -135 32 -50 200 -110 385 -138 126 -19 385 -31 376 -18
-3 6 -25 13 -49 17 -339 51 -427 84 -427 156 0 31 41 77 75 84 11 2 506 6
1100 8 594 2 1088 7 1098 12 26 11 4 32 -41 39 -83 14 -645 37 -1082 46 -507
9 -514 10 -750 77 -154 44 -171 52 -105 53 28 0 172 7 320 15 162 9 544 17
955 20 377 3 695 7 706 10 51 11 35 69 -24 84 -20 5 -136 14 -257 20 -121 6
-308 16 -415 21 -552 27 -954 70 -1230 131 -123 27 -265 66 -310 86 -31 14
-33 16 -15 23 44 18 174 10 307 -20 279 -62 604 -92 1253 -115 490 -18 872
-38 881 -48 12 -12 25 -255 19 -367 -24 -435 -216 -788 -578 -1057 -190 -142
-406 -248 -662 -328 -279 -86 -488 -120 -874 -138 l-264 -13 -24 -28 c-50 -59
-13 -108 97 -128 106 -19 582 -16 715 5 342 55 625 146 926 298 385 195 683
444 862 719 182 281 250 523 251 890 1 256 -27 459 -105 777 -217 890 -664
1380 -1389 1523 -139 27 -359 44 -450 34z m263 -64 c227 -44 466 -148 682
-298 117 -82 328 -296 404 -412 83 -126 191 -347 241 -495 109 -319 170 -699
170 -1057 0 -212 -9 -277 -55 -408 -28 -78 -133 -285 -141 -277 -3 3 9 58 25
123 58 231 64 281 58 499 -4 181 -7 211 -35 320 -42 165 -83 277 -158 434 -35
74 -64 138 -64 142 0 5 18 9 40 9 34 0 42 4 52 25 8 18 9 35 2 53 -11 30 -37
39 -122 41 l-54 1 -171 173 c-114 115 -201 193 -259 233 -48 32 -87 62 -88 67
0 4 10 7 23 7 39 0 49 14 42 54 -4 21 -3 36 3 36 8 0 89 -50 314 -193 27 -17
66 -32 92 -34 l46 -6 0 39 c0 67 -28 172 -62 237 -21 41 -67 97 -133 163 -158
160 -315 243 -592 313 -163 42 -254 51 -498 51 -116 0 -238 5 -271 11 -55 10
-134 45 -134 59 0 10 42 46 70 61 14 7 52 21 85 30 90 26 350 26 488 -1z m-74
-386 c105 -46 321 -151 331 -160 2 -3 -18 -3 -45 1 -28 3 -174 19 -325 36
-151 17 -324 37 -385 45 -60 8 -132 18 -158 21 -26 3 -50 9 -52 13 -9 15 179
56 370 79 134 16 150 14 264 -35z m311 19 c167 -33 357 -130 502 -256 73 -64
140 -137 125 -137 -2 0 -136 67 -298 149 -162 82 -352 175 -424 206 -71 31
-132 59 -135 62 -8 8 150 -8 230 -24z m-684 -253 c334 -52 650 -161 856 -297
79 -52 90 -65 51 -58 -15 3 -91 14 -168 25 -239 35 -1093 202 -1249 245 -110
30 -120 39 -84 70 20 17 44 25 95 30 37 3 75 8 83 10 34 9 296 -7 416 -25z
m778 -31 c21 -6 49 -21 62 -34 26 -26 32 -65 10 -65 -11 0 -233 96 -245 106
-10 9 138 3 173 -7z m-574 -305 c259 -28 353 -67 145 -60 -138 4 -327 35 -435
70 -44 15 -44 15 55 10 55 -3 161 -12 235 -20z m-625 -13 c39 -10 126 -35 195
-54 300 -83 608 -119 1059 -122 l335 -1 43 -49 c24 -27 43 -55 43 -62 0 -15
-20 -13 -530 57 -345 47 -758 80 -999 80 -187 0 -342 35 -401 90 -36 33 -37
43 -9 71 20 20 29 21 108 16 47 -4 118 -15 156 -26z m560 -349 c127 -11 338
-28 470 -37 132 -8 294 -20 360 -25 66 -6 182 -13 259 -17 128 -6 140 -8 168
-31 24 -20 118 -186 118 -208 0 -8 -190 2 -380 21 -505 50 -847 80 -1095 95
-273 17 -452 46 -579 94 -108 41 -207 98 -193 112 28 29 528 26 872 -4z m-415
-341 c74 -6 279 -15 455 -21 176 -6 462 -22 635 -36 173 -13 405 -31 515 -39
110 -8 212 -18 227 -21 25 -5 31 -15 58 -100 16 -52 30 -101 30 -109 0 -20
-14 -19 -160 9 -300 59 -478 79 -1405 162 -159 14 -294 28 -299 32 -5 3 -122
8 -259 11 -223 5 -251 8 -261 23 -15 25 27 65 95 90 58 20 84 20 369 -1z"/>
</g>
</svg>
