<svg version="1.0" xmlns="http://www.w3.org/2000/svg"
 width="500.000000pt" height="500.000000pt" viewBox="0 0 500.000000 500.000000"
 preserveAspectRatio="xMidYMid meet">

<g transform="translate(0.000000,500.000000) scale(0.100000,-0.100000)"
fill="#000000" stroke="none">
<path d="M2105 4700 c-137 -21 -336 -64 -365 -80 -11 -6 -20 -19 -20 -29 0
-22 36 -41 146 -77 42 -13 88 -31 102 -38 l27 -14 -45 -11 c-98 -24 -202 -62
-280 -100 -71 -36 -91 -41 -149 -41 -123 0 -225 -50 -257 -126 -27 -65 -19
-116 32 -190 47 -68 47 -83 1 -84 -24 0 -76 -27 -105 -54 -36 -32 -52 -70 -52
-122 0 -90 54 -148 188 -200 84 -33 79 -38 -45 -47 -133 -10 -187 -50 -169
-122 9 -36 85 -107 188 -175 86 -56 96 -70 53 -70 -30 0 -162 -35 -244 -66
-85 -31 -121 -62 -121 -102 0 -39 25 -59 100 -82 59 -18 90 -35 90 -49 0 -4
-25 -18 -55 -30 -30 -13 -62 -33 -70 -44 -22 -31 -18 -70 7 -95 30 -27 278
-99 528 -151 276 -58 271 -57 170 -64 -47 -4 -177 -12 -290 -17 -223 -12 -267
-19 -295 -50 -15 -16 -16 -25 -8 -43 15 -33 62 -52 194 -81 250 -54 247 -50
49 -57 -233 -8 -314 -32 -373 -111 -32 -43 -40 -79 -22 -104 35 -51 256 -123
435 -142 154 -17 326 -25 315 -14 -5 5 -71 19 -145 31 -245 39 -320 73 -320
145 0 29 7 40 37 63 l36 28 1093 0 c814 0 1096 3 1105 12 19 19 2 30 -53 37
-122 15 -664 38 -1088 46 -250 5 -479 14 -508 19 -65 12 -352 90 -371 101 -8
4 37 11 105 14 65 4 193 11 284 17 91 5 496 12 900 16 461 3 740 9 748 16 20
16 14 55 -10 68 -14 7 -155 19 -373 30 -1021 51 -1368 91 -1755 198 -133 37
-153 46 -130 61 29 19 185 11 295 -15 253 -59 553 -88 1192 -114 612 -25 923
-41 945 -47 27 -8 33 -61 32 -284 0 -174 -3 -221 -22 -307 -59 -270 -179 -491
-372 -683 -377 -375 -941 -589 -1640 -620 -323 -15 -338 -17 -367 -46 -30 -31
-28 -70 7 -95 42 -31 159 -42 420 -43 277 0 387 12 639 70 339 78 666 220 958
413 149 98 224 158 342 274 312 305 460 636 486 1082 15 253 -46 664 -151
1025 -233 805 -687 1247 -1406 1370 -148 26 -402 25 -573 0z m537 -58 c336
-90 675 -297 880 -537 334 -391 528 -1016 528 -1704 0 -278 -15 -347 -121
-558 -39 -79 -75 -143 -79 -143 -4 0 7 58 25 128 51 198 65 300 65 456 0 285
-64 537 -213 839 -29 59 -51 110 -48 112 2 3 21 5 41 5 32 0 39 4 50 30 9 23
10 37 2 54 -9 21 -20 25 -94 31 l-83 7 -165 167 c-109 110 -197 189 -257 231
-92 64 -108 80 -77 80 8 0 24 4 34 10 15 8 17 16 10 45 -6 25 -4 35 4 35 15 0
163 -87 266 -156 87 -58 129 -77 162 -72 22 3 23 7 20 63 -6 140 -65 257 -194
381 -171 165 -402 273 -708 331 -58 11 -175 18 -375 22 -287 6 -291 7 -347 33
-32 15 -58 33 -58 41 0 28 90 75 195 101 11 2 110 3 220 2 189 -2 207 -4 317
-34z m-104 -393 c184 -83 272 -127 272 -135 0 -3 -24 -3 -52 0 -29 4 -136 15
-238 26 -290 31 -358 39 -627 76 -29 3 -53 10 -53 15 0 24 327 83 483 87 51 2
73 -5 215 -69z m192 57 c94 -15 237 -59 315 -98 92 -47 209 -132 292 -213 48
-48 83 -89 78 -91 -6 -2 -71 28 -145 67 -204 108 -417 212 -571 280 -77 34
-139 63 -139 65 0 8 79 3 170 -10z m-640 -261 c130 -19 402 -86 518 -127 121
-42 255 -108 345 -168 42 -28 79 -55 82 -60 4 -6 -13 -7 -42 -4 -116 14 -434
69 -613 105 -107 22 -299 59 -426 84 -237 46 -411 87 -446 106 -44 24 13 65
107 78 92 13 343 5 475 -14z m801 -36 c45 -15 79 -47 79 -74 0 -41 1 -41 -205
55 l-60 29 76 0 c42 1 91 -4 110 -10z m-565 -305 c142 -16 261 -43 256 -59 -9
-33 -521 33 -592 77 -19 11 163 2 336 -18z m-631 -14 c464 -134 729 -170 1254
-170 l315 0 53 -56 c29 -31 53 -60 53 -65 0 -13 -18 -12 -191 12 -192 26 -421
56 -519 69 -193 25 -419 42 -685 50 -359 11 -476 33 -552 103 -29 26 -29 41
-2 68 20 20 29 21 113 16 50 -4 123 -16 161 -27z m580 -348 c225 -20 521 -42
860 -62 334 -20 354 -23 381 -56 23 -28 104 -182 104 -199 0 -10 -208 0 -400
20 -340 35 -802 75 -1100 95 -315 21 -476 53 -625 125 -146 69 -155 84 -62 96
101 14 605 2 842 -19z m-410 -341 c72 -6 272 -15 445 -21 173 -5 398 -16 500
-25 102 -8 304 -24 450 -35 406 -31 410 -31 425 -47 17 -16 65 -167 65 -202 0
-16 -5 -21 -17 -18 -132 37 -509 94 -798 122 -88 8 -180 17 -205 20 -25 3
-151 14 -280 25 -129 11 -307 27 -395 36 -88 8 -198 19 -245 24 -47 5 -160 9
-252 9 -91 1 -173 4 -182 7 -43 16 0 72 80 105 54 21 144 21 409 0z"/>
</g>
</svg>
